<?xml version="1.0" encoding="UTF-8" standalone="no"?>
<svg
   viewBox="0 0 17.847359 16.000774"
   version="1.1"
   id="svg4"
   width="17.847359"
   height="16.000774"
   xmlns="http://www.w3.org/2000/svg"
   xmlns:svg="http://www.w3.org/2000/svg">
  <defs
     id="defs8" />
  <!--!Font Awesome Pro 6.5.2 by @fontawesome - https://fontawesome.com License - https://fontawesome.com/license (Commercial License) Copyright 2024 Fonticons, Inc.-->
  <path
     d="M 0.74999999,0 C 0.334375,0 0,0.334375 0,0.74999999 0,1.165625 0.334375,1.5 0.74999999,1.5 H 2.171875 c 0.11875,0 0.2218749,0.084375 0.2468749,0.2031249 l 1.6125,8.4687501 C 4.2343749,11.234375 5.1624999,12 6.2406249,12 H 15.249999 C 15.665624,12 16,11.665625 16,11.25 16,10.834375 15.665624,10.5 15.249999,10.5 H 6.2406249 c -0.359375,0 -0.6687501,-0.25625 -0.7375,-0.6093752 l -0.16875,-0.890625 h 9.0156241 c 1.018751,0 1.909376,-0.68125 2.171876,-1.665625 L 17.803124,2.575 C 18.018749,1.78125 17.41875,0.99999998 16.596875,0.99999998 H 3.7531249 C 3.4687499,0.39999999 2.8625,0 2.171875,0 Z M 4.096875,2.4999999 h 12.174999 l -1.196875,4.44375 c -0.0875,0.3281249 -0.384374,0.55625 -0.725,0.55625 H 5.0499999 Z M 5.4999999,16 a 1.5000002,1.5000002 0 1 0 0,-3 1.5000002,1.5000002 0 1 0 0,3 z M 16,14.5 a 1.5000002,1.5000002 0 1 0 -3,0 1.5000002,1.5000002 0 1 0 3,0 z"
     id="path2"
     style="stroke-width:0.0312499" />
</svg>
