<?xml version="1.0" encoding="UTF-8" standalone="no"?>
<svg
   viewBox="0 0 18 16"
   version="1.1"
   id="svg4"
   width="18"
   height="16"
   xmlns="http://www.w3.org/2000/svg"
   xmlns:svg="http://www.w3.org/2000/svg">
  <defs
     id="defs8" />
  <!--!Font Awesome Pro 6.5.2 by @fontawesome - https://fontawesome.com License - https://fontawesome.com/license (Commercial License) Copyright 2024 Fonticons, Inc.-->
  <path
     d="m 5.5,3 v 2 h 3 V 3 C 8.5,2.171875 7.828125,1.5 7,1.5 6.171875,1.5 5.5,2.171875 5.5,3 Z M 4,5 V 3 C 4,1.34375 5.34375,0 7,0 c 1.65625,0 3,1.34375 3,3 v 2 h 2 c 1.103125,0 2,0.896875 2,2 H 7.5 C 6.11875,7 5,8.11875 5,9.5 v 5 c 0,0.171875 0.01875,0.3375 0.05,0.5 H 2 C 0.896875,15 0,14.103125 0,13 V 7 C 0,5.896875 0.896875,5 2,5 Z m 4,3 h 8 c 1.103125,0 2,0.896875 2,2 v 4 c 0,1.103125 -0.896875,2 -2,2 H 8 C 6.896875,16 6,15.103125 6,14 V 10 C 6,8.896875 6.896875,8 8,8 Z m 2,2.5 C 10,10.225 9.775,10 9.5,10 9.225,10 9,10.225 9,10.5 V 11 c 0,1.65625 1.34375,3 3,3 1.65625,0 3,-1.34375 3,-3 V 10.5 C 15,10.225 14.775,10 14.5,10 14.225,10 14,10.225 14,10.5 V 11 c 0,1.103125 -0.896875,2 -2,2 -1.103125,0 -2,-0.896875 -2,-2 z"
     id="path2"
     style="stroke-width:0.03125" />
</svg>
