<?xml version="1.0" encoding="UTF-8" standalone="no"?>
<svg
   viewBox="0 0 20.572748 16"
   version="1.1"
   id="svg4"
   width="20.572748"
   height="16"
   fill="#CCCCCC"
   xmlns="http://www.w3.org/2000/svg"
   xmlns:svg="http://www.w3.org/2000/svg">
  <defs
     id="defs8" />
  <!--!Font Awesome Free 6.5.2 by @fontawesome - https://fontawesome.com License - https://fontawesome.com/license/free Copyright 2024 Fonticons, Inc.-->
  <path
     d="M 0,2.8746707 V 13.939667 c 0,0.642898 0.36073743,1.25008 0.9643476,1.475095 3.1073423,1.160788 6.2146845,0.36788 9.3220264,-0.425028 2.850183,-0.725046 5.700366,-1.453664 8.546977,-0.675043 0.821482,0.225014 1.739398,-0.339308 1.739398,-1.192934 V 2.0603327 c 0,-0.642898 -0.360738,-1.25008004 -0.964348,-1.47509404 -3.107342,-1.160789 -6.214684,-0.367881 -9.322027,0.42502704 C 7.4361915,1.7353117 4.5860086,2.4603587 1.7393973,1.6817367 0.91434439,1.4567227 0,2.0210447 0,2.8746707 Z M 4.5717219,13.714652 H 2.285861 v -2.285861 c 1.2607952,0 2.2858609,1.025066 2.2858609,2.285861 z M 2.285861,6.8570697 v -2.285861 h 2.2858609 c 0,1.260795 -1.0250657,2.285861 -2.2858609,2.285861 z m 13.715166,4.5717213 c 0,-1.260795 1.025066,-2.2858603 2.285861,-2.2858603 v 2.2858603 z m 2.285861,-6.8575823 c -1.260795,0 -2.285861,-1.025066 -2.285861,-2.285861 h 2.285861 z m -4.571722,3.428791 c 0,2.2108563 -1.535813,4.0002573 -3.428792,4.0002573 -1.8929783,0 -3.4287911,-1.789401 -3.4287911,-4.0002573 0,-2.210856 1.5358128,-4.000257 3.4287911,-4.000257 1.892979,0 3.428792,1.789401 3.428792,4.000257 z M 9.0005776,6.2856037 c 0,0.346451 0.2464444,0.632184 0.5714652,0.700045 v 1.728683 H 9.4291765 c -0.3928824,0 -0.7143316,0.321449 -0.7143316,0.714331 0,0.392882 0.3214492,0.7143323 0.7143316,0.7143323 h 0.8571975 0.857198 c 0.392883,0 0.714332,-0.3214503 0.714332,-0.7143323 0,-0.392882 -0.321449,-0.714331 -0.714332,-0.714331 h -0.142866 v -2.428728 c 0,-0.392882 -0.321449,-0.714331 -0.714332,-0.714331 H 9.7149091 c -0.3928823,0 -0.7143315,0.321449 -0.7143315,0.714331 z"
     id="path2"
     style="stroke-width:0.0357166" />
</svg>
